<?xml version="1.0" standalone="no"?><!DOCTYPE svg PUBLIC "-//W3C//DTD SVG 1.1//EN" "http://www.w3.org/Graphics/SVG/1.1/DTD/svg11.dtd"><svg t="1703213894692" class="icon" viewBox="0 0 1024 1024" version="1.1" xmlns="http://www.w3.org/2000/svg" p-id="46122" xmlns:xlink="http://www.w3.org/1999/xlink" width="64" height="64"><path d="M780.693736 615.713811c-1.680906 92.643019-30.21766 203.486189-96.120755 274.663849-44.167245 47.722264-100.197434 71.969811-166.467623 71.969812-66.386113 0-122.165132-22.740528-165.694792-67.506717-69.400151-71.370868-97.048151-185.382642-101.008906-275.668529-22.044981-6.742943-42.582943-14.799698-62.560603-26.778566C188.184151 697.86566 218.517736 845.901283 307.779623 937.713509 363.442717 994.941585 434.233962 1024 518.105358 1024c83.137208 0 156.498113-31.782642 212.161208-91.870189 89.841509-96.990189 116.349585-242.282264 112.176302-346.054037-19.340075 13.138113-39.800755 22.218868-61.749132 29.638037z" fill="#2E3192" p-id="46123"></path><path d="M865.125434 472.83683c-2.511698 82.306415-93.95683 133.37117-354.477887 133.37117-261.062038 0-352.313962-51.335245-354.477887-133.931472 63.565283 0 184.590491-83.542943 354.477887-83.542943 165.540226-0.038642 301.152604 84.103245 354.477887 84.103245z" fill="#A0A3F2" p-id="46124"></path><path d="M510.686189 647.341887c-86.924075 0-157.657358-5.603019-214.054642-16.944302 2.608302 23.687245 19.765132 141.737057 101.549887 141.737057 72.549434 0 70.520755-56.146113 114.707321-56.146114 44.128604 0 49.267925 56.146113 120.213736 56.146114 88.102642 0 103.713811-130.685585 105.143547-144.596529-58.464604 13.273358-133.583698 19.803774-227.559849 19.803774z" fill="#000000" p-id="46125"></path><path d="M821.75034 138.278642s54.581132 102.4 153.947773 214.016l-95.521811 81.456301c-64.627925-7.090717-195.603321-88.875472-368.176302-88.875471S208.451623 426.660226 143.823698 433.712302L48.301887 352.294642C147.668528 240.678642 202.24966 138.278642 202.24966 138.278642S309.151396 109.007698 512 0c202.809962 109.007698 309.75034 138.278642 309.75034 138.278642z m-267.476529 137.138716c30.816604-7.805585 48.533736-28.034415 48.533736-55.392603 0-15.36-6.240604-29.483472-13.408604-48.88151-8.114717-21.890415-3.497057-28.807245 5.023397-37.63683l7.245283-7.515773-41.443019-35.105812c-4.59834 4.694943-10.201358 11.978868-20.673208 11.978868-10.723019 0-17.736453-7.728302-22.02566-11.553811-4.733585 4.096-11.804981 11.553811-22.25751 11.553811-10.587774 0-16.364679-7.67034-20.48-11.862943L433.171321 125.971321l7.206641 7.515773c8.501132 8.829585 13.118792 15.746415 5.023396 37.61751-7.206642 19.417358-13.408604 33.579472-13.408603 48.90083 0 27.435472 17.697811 47.62566 48.514415 55.431245 22.180226 5.603019 25.542038 8.018113 36.902641 17.15683 11.360604-9.138717 14.683774-11.573132 36.864-17.15683z" fill="#2E3192" p-id="46126"></path><path d="M517.776906 147.069585l-13.196076 26.585358-29.560755 4.250566 21.388076 20.711849-5.023396 29.232302 26.392151-13.83366 26.430792 13.83366-5.062038-29.232302 21.368755-20.692528-29.502792-4.269887z" fill="#2E3192" p-id="46127"></path></svg>