<?xml version="1.0" standalone="no"?><!DOCTYPE svg PUBLIC "-//W3C//DTD SVG 1.1//EN" "http://www.w3.org/Graphics/SVG/1.1/DTD/svg11.dtd"><svg t="1703153499340" class="icon" viewBox="0 0 1024 1024" version="1.1" xmlns="http://www.w3.org/2000/svg" p-id="44908" xmlns:xlink="http://www.w3.org/1999/xlink" width="64" height="64"><path d="M749.513157 668.546763h-474.960831c-56.684253 76.329337-91.472422 166.573941-100.885691 261.115907l338.263789 35.811351 338.263789-35.811351c-9.208633-94.541966-44.201439-184.786571-100.681056-261.115907z" fill="#C6D0DA" p-id="44909"></path><path d="M511.930424 1004.764189l315.958433-18.007994 22.509992-57.093525h-676.732214l22.509992 57.093525 315.753797 18.007994z" fill="#808B95" p-id="44910"></path><path d="M511.930424 748.764189c85.947242 0.204636 169.438849-28.035172 237.582733-80.422063-6.957634-9.208633-14.32454-17.803357-22.509992-25.988809h-430.145483c-7.980815 8.185452-15.552358 16.780176-22.509992 25.988809 68.143885 52.38689 151.840128 80.626699 237.582734 80.422063z" fill="#A0AAB7" p-id="44911"></path><path d="M511.930424 694.535572c222.644285 0 346.858513-166.778577 356.476419-355.453238-10.231815-196.860112-178.033573-348.290967-374.893686-338.059153-182.535572 9.413269-328.441247 155.318945-338.059152 338.059153 9.822542 188.470024 135.673861 355.453237 356.476419 355.453238z" fill="#E7ECF1" p-id="44912"></path><path d="M511.930424 677.550759c-189.902478 0-346.653877-148.770584-356.476419-338.468425-0.409273 6.139089-0.409273 12.278177-0.409273 18.621903 0 197.064748 159.820943 356.885691 356.885692 356.885691s356.885691-159.820943 356.885691-356.885691c0-6.139089-0.204636-12.482814-0.409272-18.621903-9.822542 189.697842-166.573941 338.468425-356.476419 338.468425z" fill="#C6D0DA" p-id="44913"></path><path d="M678.709001 340.514788c-9.208633-92.086331-91.472422-159.207034-183.558753-149.793765-78.580336 7.980815-140.994404 69.780975-149.793765 148.361311-0.613909 6.139089 0 168.211031 166.573941 168.211031 167.597122 0 167.392486-161.048761 166.778577-166.778577z" fill="#808B95" p-id="44914"></path><path d="M511.930424 488.26219c-85.333333 0-157.160671-64.255795-166.573941-148.97522-10.231815 91.881695 56.070344 174.964029 147.952038 185.195844s174.964029-56.070344 185.195844-147.952039c1.432454-12.278177 1.432454-24.760991 0-37.243805-9.413269 84.719424-81.035971 148.97522-166.573941 148.97522z" fill="#5E6B75" p-id="44915"></path><path d="M565.135859 339.082334c-10.231815-29.26299-42.359712-44.815348-71.622702-34.583533-16.166267 5.729816-29.058353 18.417266-34.583533 34.583533-1.63709 29.26299 20.668265 54.433253 49.931255 56.27498 29.26299 1.63709 54.433253-20.668265 56.27498-49.931255v-6.343725z" fill="#F6E080" p-id="44916"></path><path d="M511.930424 376.735412c-23.942446 0-45.22462-15.143086-53.0008-37.653078-10.231815 29.26299 5.115907 61.390887 34.583533 71.622702 29.26299 10.231815 61.390887-5.115907 71.622702-34.583533 4.297362-12.073541 4.297362-25.170264 0-37.039169-7.980815 22.509992-29.26299 37.653078-53.205435 37.653078z" fill="#ECCD61" p-id="44917"></path><path d="M511.930424 986.756195h-315.958434l3.274181 8.185452c6.957634 17.598721 23.73781 29.058353 42.564349 29.058353h540.444444c18.826539 0 35.606715-11.459632 42.564349-29.058353l3.27418-8.185452h-316.163069z" fill="#5E6B75" p-id="44918"></path><path d="M527.482782 113.163869V90.244604c0-8.594724-6.957634-15.552358-15.552358-15.552358-8.594724 0-15.347722 6.957634-15.552358 15.552358v22.919265c0 8.594724 6.957634 15.552358 15.552358 15.552358 8.594724-0.204636 15.552358-7.16227 15.552358-15.552358z" fill="#808B95" p-id="44919"></path></svg>